<svg width="760" height="220" viewBox="0 0 760 220" fill="none" xmlns="http://www.w3.org/2000/svg" role="img" aria-labelledby="title desc">
  <title id="title">Habitfix</title>
  <desc id="desc">Logo de Habitfix con una H y una flecha de progreso.</desc>
  <defs>
    <linearGradient id="green" x1="30" y1="20" x2="210" y2="190" gradientUnits="userSpaceOnUse">
      <stop stop-color="#8DFF7A"/>
      <stop offset="1" stop-color="#25D95F"/>
    </linearGradient>
    <filter id="softGlow" x="-20%" y="-20%" width="140%" height="140%">
      <feGaussianBlur stdDeviation="3" result="blur"/>
      <feColorMatrix in="blur" type="matrix" values="0 0 0 0 0.36 0 0 0 0 1 0 0 0 0 0.36 0 0 0 0.28 0"/>
      <feBlend in="SourceGraphic"/>
    </filter>
  </defs>

  <g filter="url(#softGlow)">
    <path d="M130 26H72C45 26 26 46 26 75V146C26 176 46 196 76 196H120" stroke="url(#green)" stroke-width="12" stroke-linecap="round"/>
    <path d="M70 138L99 108L124 132L168 76" stroke="url(#green)" stroke-width="13" stroke-linecap="round" stroke-linejoin="round"/>
    <path d="M151 80L170 73L170 94" stroke="url(#green)" stroke-width="12" stroke-linecap="round" stroke-linejoin="round"/>
    <path d="M78 78V148M78 113H118M118 78V148" stroke="#F7F8F3" stroke-width="18" stroke-linecap="round" stroke-linejoin="round"/>
  </g>

  <text x="222" y="120" fill="#F7F8F3" font-family="Inter, Segoe UI, Arial, sans-serif" font-size="78" font-weight="800" letter-spacing="0">Habit</text>
  <text x="450" y="120" fill="#55EB63" font-family="Inter, Segoe UI, Arial, sans-serif" font-size="78" font-weight="800" letter-spacing="0">fix</text>
  <text x="226" y="168" fill="#ADB5B0" font-family="Inter, Segoe UI, Arial, sans-serif" font-size="24" font-weight="700" letter-spacing="10">un </text>
  <text x="292" y="168" fill="#55EB63" font-family="Inter, Segoe UI, Arial, sans-serif" font-size="24" font-weight="800" letter-spacing="4">1%</text>
  <text x="350" y="168" fill="#ADB5B0" font-family="Inter, Segoe UI, Arial, sans-serif" font-size="24" font-weight="700" letter-spacing="10"> mejor cada dia</text>
</svg>
